<svg width="88" height="56" viewBox="0 0 88 56" fill="none" xmlns="http://www.w3.org/2000/svg">
<g filter="url(#filter0_d_65_850)">
<rect x="8" width="72" height="40" rx="20" fill="#FCFCFD"/>
</g>
<path d="M48.3291 25L50.8491 21.528L48.3291 18.056H50.2471L52.0111 20.52L53.7611 18.056H55.6931L53.1591 21.528L55.6931 25H53.7611L52.0111 22.536L50.2471 25H48.3291ZM56.6388 25V23.698C57.2361 23.2033 57.8148 22.7133 58.3748 22.228C58.9441 21.7427 59.4481 21.262 59.8868 20.786C60.3348 20.31 60.6895 19.848 60.9508 19.4C61.2215 18.9427 61.3568 18.4993 61.3568 18.07C61.3568 17.6687 61.2448 17.314 61.0208 17.006C60.8061 16.698 60.4468 16.544 59.9428 16.544C59.4295 16.544 59.0421 16.712 58.7808 17.048C58.5195 17.384 58.3888 17.79 58.3888 18.266H56.6528C56.6715 17.5473 56.8301 16.95 57.1288 16.474C57.4275 15.9887 57.8241 15.6293 58.3188 15.396C58.8135 15.1533 59.3688 15.032 59.9848 15.032C60.9835 15.032 61.7581 15.3073 62.3088 15.858C62.8688 16.3993 63.1488 17.104 63.1488 17.972C63.1488 18.5133 63.0228 19.0407 62.7708 19.554C62.5281 20.0673 62.2061 20.562 61.8048 21.038C61.4035 21.514 60.9695 21.962 60.5028 22.382C60.0361 22.7927 59.5835 23.1753 59.1448 23.53H63.3868V25H56.6388Z" fill="#141416"/>
<g clip-path="url(#clip0_65_850)">
<path d="M34.8071 17.9202L34.8039 17.929H29.8624C29.1451 17.929 28.4774 18.1449 27.9204 18.5149H26.3438C25.6976 18.5149 25.1719 17.9892 25.1719 17.3431C25.1719 16.6969 25.6976 16.1712 26.3438 16.1712H28.1016C28.4252 16.1712 28.6875 15.9089 28.6875 15.5853C28.6875 15.2617 28.4252 14.9993 28.1016 14.9993H26.3438C25.0514 14.9993 24 16.0507 24 17.3431C24 18.6354 25.0514 19.6868 26.3438 19.6868H26.817C26.5162 20.205 26.3438 20.8065 26.3438 21.4476V28.7884C26.3438 29.112 26.6061 29.3743 26.9297 29.3743H29.2734C29.597 29.3743 29.8594 29.112 29.8594 28.7884V23.8434L35.2109 24.324V28.8274C35.2109 29.151 35.4733 29.4134 35.7969 29.4134H38.1406C38.4642 29.4134 38.7266 29.151 38.7266 28.8274V23.2605L39.4486 19.6505L34.8071 17.9202ZM43.4141 14.4134H41.646C41.5509 13.519 40.7938 12.8118 39.8613 12.8118H38.8782L38.5194 11.054C38.402 10.479 37.6011 10.4165 37.3962 10.9667L35.2161 16.822L39.6813 18.4865L39.7929 17.929H41.0703C42.6857 17.929 44 16.6148 44 14.9993C44 14.6757 43.7377 14.4134 43.4141 14.4134Z" fill="#141416"/>
</g>
<defs>
<filter id="filter0_d_65_850" x="0" y="0" width="88" height="56" filterUnits="userSpaceOnUse" color-interpolation-filters="sRGB">
<feFlood flood-opacity="0" result="BackgroundImageFix"/>
<feColorMatrix in="SourceAlpha" type="matrix" values="0 0 0 0 0 0 0 0 0 0 0 0 0 0 0 0 0 0 127 0" result="hardAlpha"/>
<feMorphology radius="8" operator="erode" in="SourceAlpha" result="effect1_dropShadow_65_850"/>
<feOffset dy="8"/>
<feGaussianBlur stdDeviation="8"/>
<feColorMatrix type="matrix" values="0 0 0 0 0.0583333 0 0 0 0 0.0583333 0 0 0 0 0.0583333 0 0 0 0.1 0"/>
<feBlend mode="multiply" in2="BackgroundImageFix" result="effect1_dropShadow_65_850"/>
<feBlend mode="normal" in="SourceGraphic" in2="effect1_dropShadow_65_850" result="shape"/>
</filter>
<clipPath id="clip0_65_850">
<rect width="20" height="20" fill="white" transform="translate(24 10)"/>
</clipPath>
</defs>
</svg>
