<svg width="16" height="16" viewBox="0 0 16 16" fill="none" xmlns="http://www.w3.org/2000/svg">
<path fill-rule="evenodd" clip-rule="evenodd" d="M3.97574 3.97574C4.21005 3.74142 4.58995 3.74142 4.82426 3.97574L8 7.15148L11.1757 3.97574C11.4101 3.74142 11.7899 3.74142 12.0243 3.97574C12.2586 4.21005 12.2586 4.58995 12.0243 4.82427L8.84853 8L12.0243 11.1757C12.2586 11.4101 12.2586 11.79 12.0243 12.0243C11.7899 12.2586 11.4101 12.2586 11.1757 12.0243L8 8.84853L4.82426 12.0243C4.58995 12.2586 4.21005 12.2586 3.97574 12.0243C3.74142 11.79 3.74142 11.4101 3.97574 11.1757L7.15147 8L3.97574 4.82427C3.74142 4.58995 3.74142 4.21005 3.97574 3.97574Z" fill="#141416"/>
</svg>
